<svg id="Home_-_White" data-name="Home - White" xmlns="http://www.w3.org/2000/svg" width="100%" height="100%" viewBox="0 0 19.5 19.49"><defs><style>.cls-1{fill:#fff;}</style></defs><g id="VzZaH5"><path class="cls-1" d="M15.9,4.66c0-.2,0-.38,0-.56l0-.67a1,1,0,0,1,.94-.91c.46,0,.91,0,1.37,0a1,1,0,0,1,1,1c0,1.33,0,2.67,0,4a1.06,1.06,0,0,0,.34.86c.52.5,1,1,1.53,1.52l.37.41a1,1,0,0,1,.17,1.13,1,1,0,0,1-1,.58H19.43c-.19,0-.19,0-.19.19v7.39a1.18,1.18,0,0,1-.17.69,1,1,0,0,1-.89.44c-1.09,0-2.19,0-3.28,0-.19,0-.19,0-.19-.2,0-1.9,0-3.8,0-5.7a1.55,1.55,0,0,0-.46-1.17,1.27,1.27,0,0,0-.85-.37c-.94,0-1.88,0-2.82,0a1.4,1.4,0,0,0-1.26,1.24c0,.18,0,.35,0,.52,0,1.82,0,3.64,0,5.46,0,.22,0,.22-.23.22H5.84a1,1,0,0,1-1.09-1.09v-7.4c0-.22,0-.22-.22-.22H3.32a1.14,1.14,0,0,1-.65-.2,1,1,0,0,1-.25-1.36,2.68,2.68,0,0,1,.4-.49Q6.9,5.89,11,1.81a2.71,2.71,0,0,1,.41-.35,1,1,0,0,1,1.28.06c.17.14.33.3.49.46L15,3.81l.81.78Z" transform="translate(-2.25 -1.26)"/></g></svg>